<svg width="40" height="40" viewBox="0 0 40 40" fill="none" xmlns="http://www.w3.org/2000/svg">
<path fill-rule="evenodd" clip-rule="evenodd" d="M13.7747 12.2839C13.7747 13.529 12.8267 14.5366 11.3442 14.5366C9.91935 14.5366 8.97132 13.529 9.00066 12.2839C8.97132 10.9783 9.91933 10 11.3726 10C12.8267 10 13.7463 10.9783 13.7747 12.2839ZM9.11986 30.8191V16.3162H13.6271V30.8181H9.11986V30.8191Z" fill="#8D8D8D"/>
<path fill-rule="evenodd" clip-rule="evenodd" d="M17.2398 20.9446C17.2398 19.1357 17.1802 17.5935 17.1206 16.3182H21.0356L21.2437 18.305H21.3326C21.9258 17.3854 23.4084 15.9927 25.8106 15.9927C28.7757 15.9927 31 17.9502 31 22.219V30.821H26.4927V22.7838C26.4927 20.9144 25.8408 19.6399 24.2097 19.6399C22.9637 19.6399 22.2229 20.4999 21.9268 21.3297C21.8076 21.6268 21.7489 22.0412 21.7489 22.4574V30.821H17.2416V20.9446H17.2398Z" fill="#00FF75"/>
</svg>
