<svg width="40" height="40" viewBox="0 0 40 40" fill="none" xmlns="http://www.w3.org/2000/svg">
<path d="M12.9387 11C8.00201 11 4 15.0296 4 20C4 24.9704 8.00231 29 12.9387 29C17.8751 29 21.8774 24.9707 21.8774 20C21.8774 15.0293 17.8756 11 12.9387 11ZM27.2134 11.5272C24.7449 11.5272 22.7443 15.3215 22.7443 20.0001C22.7443 24.6788 24.7452 28.4733 27.2137 28.4733C29.6821 28.4733 31.6831 24.679 31.6831 20.0001C31.6831 15.3202 29.6819 11.5272 27.2134 11.5272ZM34.122 12.4097C33.254 12.4097 32.5504 15.8083 32.5504 20.0001C32.5504 24.192 33.2536 27.5906 34.122 27.5906C34.9903 27.5906 35.694 24.1911 35.694 20C35.694 15.808 34.9899 12.4097 34.122 12.4097Z" fill="#00FF75"/>
</svg>
