<svg width="40" height="40" viewBox="0 0 40 40" fill="none" xmlns="http://www.w3.org/2000/svg">
<path d="M30.3271 9.69328L26.692 27.7011C26.692 27.7011 26.183 28.9511 24.783 28.3495L16.3915 22.0292L13.3371 20.5839L8.19871 18.8886C8.19871 18.8886 7.41125 18.6152 7.33171 18.0136C7.25217 17.412 8.22257 17.0917 8.22257 17.0917L28.6488 9.22453C28.6488 9.21672 30.3271 8.49015 30.3271 9.69328Z" fill="#00FF75"/>
<path d="M15.7392 27.498C15.7392 27.498 15.4927 27.4745 15.1904 26.5292C14.8882 25.5839 13.3371 20.5839 13.3371 20.5839L25.6739 12.8886C25.6739 12.8886 26.3898 12.4667 26.358 12.8886C26.358 12.8886 26.4853 12.9667 26.1035 13.3105C25.7217 13.662 16.4153 21.8808 16.4153 21.8808" fill="#00D361"/>
<path d="M19.6049 24.4511L16.2881 27.4277C16.2881 27.4277 16.0256 27.623 15.7472 27.498L16.3835 21.9745" fill="#006930"/>
</svg>
